<?xml version="1.0" encoding="UTF-8"?>
<svg width="200px" height="50px" viewBox="0 0 200 50" version="1.1" xmlns="http://www.w3.org/2000/svg">
    <defs>
        <linearGradient x1="0%" y1="0%" x2="100%" y2="100%" id="logoGradient">
            <stop stop-color="#00c2cb" offset="0%"></stop>
            <stop stop-color="#9c64a6" offset="100%"></stop>
        </linearGradient>
    </defs>
    <g stroke="none" stroke-width="1" fill="none" fill-rule="evenodd">
        <path d="M15,10 C15,7.239 17.239,5 20,5 L30,5 C32.761,5 35,7.239 35,10 L35,40 C35,42.761 32.761,45 30,45 L20,45 C17.239,45 15,42.761 15,40 L15,10 Z" fill="url(#logoGradient)"></path>
        <circle cx="25" cy="35" r="5" fill="#ffffff"></circle>
        <path d="M35,20 L55,15 L55,35 C55,37.761 52.761,40 50,40 C47.239,40 45,37.761 45,35 C45,32.239 47.239,30 50,30 L55,30" stroke="#ffffff" stroke-width="2" stroke-linecap="round"></path>
        <path d="M65,10 L90,10 C95,10 95,20 90,20 L75,20 L75,40" stroke="#ffffff" stroke-width="3" stroke-linecap="round"></path>
        <path d="M95,10 L95,40" stroke="#ffffff" stroke-width="3" stroke-linecap="round"></path>
        <path d="M105,40 L105,10 L120,10 C125,10 125,20 120,20 L105,20" stroke="#ffffff" stroke-width="3" stroke-linecap="round"></path>
        <path d="M130,10 L150,10 C155,10 155,25 150,25 L130,25 L130,40" stroke="#ffffff" stroke-width="3" stroke-linecap="round"></path>
        <path d="M160,10 L175,10 C180,10 180,25 175,25 L160,25 L160,40" stroke="#ffffff" stroke-width="3" stroke-linecap="round"></path>
        <path d="M185,10 L185,40" stroke="#ffffff" stroke-width="3" stroke-linecap="round"></path>
    </g>
</svg>
